<?xml version="1.0" encoding="UTF-8"?>
<svg id="Calque_1" xmlns="http://www.w3.org/2000/svg" version="1.1" viewBox="0 0 64 64">
  <!-- Generator: Adobe Illustrator 29.6.1, SVG Export Plug-In . SVG Version: 2.1.1 Build 9)  -->
  <defs>
    <style>
      .st0 {
        fill: #fff;
      }
    </style>
  </defs>
  <path class="st0" d="M46,0h-28C8.06,0,0,8.06,0,18v28c0,9.94,8.06,18,18,18h28c9.94,0,18-8.06,18-18v-28C64,8.06,55.94,0,46,0ZM38.73,44.84v16.65h-8.92v-15.66c0-.73-.29-1.42-.8-1.93l-.56-.56-6.18-6.18v10.59h3.03c.86,0,1.56.7,1.56,1.56v7.37h-13.51v-30.89h10.17l13.1,13.1,1.23,1.23c.2.2.37.42.5.66,0,0,0,0,0,.01.26.48.38,1.02.38,1.57v2.48ZM50.66,56.68h-8.92v-16.08c0-.73-.29-1.42-.8-1.93l-13.55-13.55-1.17-1.17c-.23-.23-.43-.49-.59-.78,0-.01-.01-.03-.02-.04-.24-.46-.34-.98-.34-1.5V2.51h8.92v15.66c0,.73.29,1.42.8,1.93l.56.56,6.18,6.18V9.72h8.92v46.96Z"/>
</svg>